<?xml version="1.0" encoding="utf-8"?>
<!-- Generator: Adobe Illustrator 16.0.0, SVG Export Plug-In . SVG Version: 6.00 Build 0)  -->
<!DOCTYPE svg PUBLIC "-//W3C//DTD SVG 1.1//EN" "http://www.w3.org/Graphics/SVG/1.1/DTD/svg11.dtd">
<svg version="1.1" id="Layer_1" xmlns="http://www.w3.org/2000/svg" xmlns:xlink="http://www.w3.org/1999/xlink" x="0px" y="0px"
	 width="960px" height="560px" viewBox="0 0 960 560" enable-background="new 0 0 960 560" xml:space="preserve">
<rect fill="#F9F9F9" width="507" height="560"/>
<path fill="#F7B866" d="M136.702,107.94c0,0-2.012-2.587-5.28-1.734c-3.269,0.853-4.405,3.484-4.405,7.781s0.71,14.1,5.825,15.379
	c5.115,1.279,6.962,0.71,6.962,0.71L136.702,107.94"/>
<path fill="#F7B866" d="M204.365,107.94c0,0,2.012-2.587,5.28-1.734c3.268,0.853,4.405,3.484,4.405,7.781s-0.71,14.1-5.825,15.379
	c-5.115,1.279-6.962,0.71-6.962,0.71L204.365,107.94"/>
<path fill="#F7B866" d="M154.097,156.898c0,0,1.203,20.067,5.608,25.323c4.405,5.258,6.945,6.82,10.506,6.82
	c3.561,0,8.959-3.836,10.664-6.535c1.705-2.701,5.721-15.837,5.721-25.608C186.596,147.127,154.097,156.898,154.097,156.898z"/>
<path fill="#F7B866" d="M137.504,113.986c0,0-0.864,21.58,0,23.285s16.778,26.712,32.407,26.712s33.39-23.728,33.39-26.854
	s0-23.143,0-23.143l-0.716-34.535l-23.586-0.711h-40.209L137.504,113.986z"/>
<path fill="#576574" d="M170.914,245.595h-49.43c-6.08-12.28-20.96-17.38-33.32-11.36c-0.32,0.15-0.64,0.311-0.95,0.48
	c-4.74,2.52-8.34,6.38-10.58,10.88h-8c0,0,0.68-2.11,1.73-5.32c0.92-2.77,2.12-6.359,3.42-10.1c1.67-4.81,3.49-9.87,5.07-13.76
	c1.01-2.5,1.92-4.521,2.62-5.69c3.61-6.05,22.98-32.59,36.2-33.61c16.31-1.25,24.84,0.22,38.68-6.32c0,0,2.52,17.17,14.4,17.17
	L170.914,245.595z"/>
<path fill="#576574" d="M184.748,170.799c0,0-2.354,17.17-14.235,17.17l-0.166,57.621h102.03c0,0-8.973-28.812-12.585-34.862
	c-3.612-6.053-25.697-31.948-38.849-33.608C206.167,175.252,199.228,175.309,184.748,170.799z"/>
<path fill="#222F3E" d="M170.344,245.595h-48.86c-6.08-12.28-20.96-17.38-33.32-11.36c-0.32,0.15-0.64,0.311-0.95,0.48
	c1.49-3.32,3.12-6.95,4.64-10.25c0.65-1.41,1.27-2.76,1.85-3.99c1.17-2.46,2.15-4.45,2.77-5.57c1.24-2.21,3.35-6.31,6.16-10.54
	c3.97-6,9.34-12.26,15.58-13.76c10.66-2.56,24.45-0.64,35.88-6.39c0,0,6.3,10.65,16.12,10.65L170.344,245.595z"/>
<path fill="#222F3E" d="M185.886,184.21c0,0-6.301,10.656-16.113,10.656l-0.136,50.724h87.935c0,0-11.082-25.361-14.066-30.689
	c-2.983-5.328-11.082-21.739-21.738-24.297C211.111,188.047,197.319,189.965,185.886,184.21z"/>
<path fill="#3D3D3D" d="M144.431,83.403c0,0,0.639,18.116,0,19.395c-0.64,1.279-3.41,4.263-3.41,5.008c0,0.746,0,6.181,0,6.181
	h-3.517c0,0-0.533-5.542-0.959-6.607s-5.399-13.814,0.995-30.865c0,0-6.113-25.988,12.926-29.256
	c19.039-3.268,33.389,4.546,40.351,1.847c6.962-2.699,12.213-8.948,13.633-13.92c0,0,8.95,10.512,0.709,18.468
	c0,0,10.653,3.693,18.042-7.531c0,0-0.853,18.037-10.23,21.73c0,0,19.325-2.702,20.745-10.232c0,0-1.989,27.277-26.854,24.293
	c0,0,2.983,14.621,0.994,19.31c-1.989,4.688-2.615,6.394-2.615,7.246s0.071,5.517,0.071,5.517h-3.424c0,0-0.143-4.949-0.426-6.796
	c-0.284-1.846-2.131-2.84-2.415-4.404c-0.284-1.563-0.71-19.607-0.71-19.607s-9.661,6.251-27.28,6.251
	S144.431,83.403,144.431,83.403z"/>
<path fill="#222F3E" d="M144.431,83.403c0,0,10.978,5.738,20.09,5.738c0,0-6.24-7.798-2.546-13.339s17.618,1.119,28.416-1.216
	c10.799-2.335,19.762-9.284,19.892-14.839c0,0-11.793,5.114-15.629,2.841c0,0,6.536-6.961,5.684-10.797
	c0,0-23.018,7.672-43.478,1.705C136.4,47.527,140.811,78.785,144.431,83.403z"/>
<rect x="100.527" y="30.805" fill="#222F3E" width="26.109" height="10.25"/>
<rect x="100.527" y="30.805" fill="#222F3E" width="10.25" height="26.109"/>
<rect x="100.527" y="139.501" fill="#222F3E" width="10.25" height="26.109"/>
<rect x="100.527" y="155.36" fill="#222F3E" width="26.109" height="10.25"/>
<rect x="221.362" y="155.36" fill="#222F3E" width="26.109" height="10.25"/>
<rect x="237.221" y="139.501" fill="#222F3E" width="10.25" height="26.109"/>
<rect x="236.521" y="28" fill="#222F3E" width="10.25" height="26.109"/>
<rect x="220.662" y="28" fill="#222F3E" width="26.109" height="10.25"/>
<g>
	<g>
		<path fill="#253744" d="M144.344,259.015l-0.82-11.1l3.52-2.32l5.85-3.85c-1.16-4.19-2.81-8.2-4.88-11.971l-11.02,2.17
			l-7.19-8.479l3.95-10.52c-3.25-2.57-6.81-4.81-10.65-6.63l-7.69,8.2l-10.79-2.73l-1.99-7.42l-0.92-3.43
			c-4.38-0.21-8.71,0.1-12.91,0.89l-1.39,11.15l-8.56,3.44l-1.77,0.71l-8.74-7.04c-3.59,2.36-6.92,5.14-9.9,8.3l5.41,9.82
			l-5.89,9.43l-11.21-0.55c-0.78,2.08-1.47,4.22-2.01,6.45c-0.49,2.04-0.85,4.06-1.12,6.09l10.17,4.75l0.78,11.1l-9.41,6.141
			c1.17,4.189,2.79,8.23,4.87,12.009l11.02-2.129l7.17,8.5l-4,10.51c3.35,2.66,7.02,4.979,10.98,6.84l7.66-8.23l10.8,2.68
			l2.94,10.85c4.39,0.182,8.71-0.139,12.91-0.939l1.36-11.15l10.31-4.199l8.76,7.02c3.59-2.391,6.92-5.18,9.88-8.34l-5.46-9.801
			l5.86-9.469l11.23,0.529c0.75-2.039,1.41-4.129,1.92-6.28c0.52-2.09,0.89-4.189,1.14-6.28L144.344,259.015z M121.614,245.845
			c6.06,12.49,0.81,27.48-11.66,33.491c-12.44,6.01-27.43,0.84-33.47-11.661c-3.49-7.271-3.18-15.39,0.15-22.08
			c2.24-4.5,5.84-8.36,10.58-10.88c0.31-0.17,0.63-0.33,0.95-0.48c12.36-6.02,27.24-0.92,33.32,11.36
			C121.534,245.675,121.574,245.765,121.614,245.845z"/>
		<path fill="#FFFFFF" d="M133.984,245.595c-0.51-1.61-1.15-3.2-1.91-4.77c-7.14-14.78-22.93-22.62-38.37-20.351
			c-3.6,0.521-7.18,1.601-10.62,3.26c-3.51,1.7-6.62,3.881-9.3,6.44c-11.26,10.68-14.87,27.81-7.74,42.56
			c8.81,18.23,30.75,25.871,48.97,17.06C131.684,281.756,139.504,262.735,133.984,245.595z M113.454,286.564
			c-16.44,7.941-36.23,1.051-44.17-15.389c-4.95-10.24-4.16-21.74,1.08-30.9c3.2-5.58,8.06-10.29,14.28-13.3
			c2.35-1.14,4.77-1.97,7.21-2.51c14.66-3.271,30.18,3.83,36.99,17.92c0.51,1.06,0.96,2.13,1.35,3.21
			C135.864,261.326,128.844,279.125,113.454,286.564z"/>
		<path fill="none" d="M121.484,245.595h-44.85c2.24-4.5,5.84-8.36,10.58-10.88c0.31-0.17,0.63-0.33,0.95-0.48
			C100.524,228.215,115.404,233.315,121.484,245.595z"/>
	</g>
</g>
<g>
	<g>
		<path fill="#222F3E" d="M181.252,358.863c0.658-1.57,1.203-3.17,1.656-4.77l-7.383-4.938l0.712-8.777l8.077-3.688
			c-0.397-3.414-1.199-6.754-2.362-9.957l-8.881,0.357l-4.593-7.516l4.37-7.746c-2.226-2.406-4.742-4.594-7.524-6.486l-7.01,5.48
			l-8.109-3.441l-0.962-8.85c-3.402-0.693-6.823-0.982-10.205-0.873l-2.445,8.551l-8.585,1.99l-5.979-6.57
			c-3.097,1.41-6.041,3.18-8.758,5.291l3.039,8.342l-5.759,6.658l-8.702-1.797c-0.863,1.527-1.659,3.127-2.356,4.801
			c-0.627,1.535-1.161,3.074-1.616,4.625l7.375,4.959l-0.741,8.773l-8.107,3.66c0.404,3.418,1.184,6.779,2.345,9.992l8.885-0.33
			l4.57,7.527l-4.403,7.734c2.295,2.484,4.881,4.748,7.753,6.688l6.997-5.506l8.125,3.41l0.979,8.844
			c3.406,0.68,6.831,0.949,10.213,0.834l2.42-8.557l8.576-2.029l5.996,6.557c3.104-1.428,6.045-3.201,8.749-5.318l-3.082-8.334
			l5.741-6.693l8.713,1.785C179.814,362.041,180.585,360.48,181.252,358.863z M146.151,360.867
			c-10.464,3.188-21.564-2.682-24.766-13.197c-3.167-10.488,2.725-21.566,13.208-24.736c10.471-3.223,21.563,2.68,24.753,13.158
			C162.565,346.6,156.633,357.684,146.151,360.867z"/>
		<path fill="#FFFFFF" d="M168.142,333.438c-4.669-15.336-20.909-24.002-36.248-19.334c-15.331,4.686-23.979,20.9-19.292,36.262
			c4.671,15.332,20.905,23.979,36.232,19.307C164.172,365.004,172.818,348.768,168.142,333.438z M148.004,366.949
			c-13.826,4.215-28.467-3.586-32.68-17.414c-4.229-13.857,3.572-28.482,17.4-32.709c13.835-4.211,28.484,3.607,32.696,17.439
			C169.638,348.092,161.839,362.738,148.004,366.949z"/>
	</g>
</g>
<g>
	<g>
		<path fill="#222F3E" d="M99.052,338.867c0.022-1.223-0.039-2.434-0.162-3.625l-6.241-1.334l-1.855-6.049l4.414-4.609
			c-1.172-2.172-2.593-4.189-4.222-6.02l-5.835,2.596l-5.062-3.797l0.86-6.334c-2.125-1.014-4.386-1.807-6.746-2.332l-3.226,5.521
			l-6.33-0.145l-2.992-5.654c-2.456,0.439-4.816,1.156-7.046,2.127l0.638,6.357l-5.204,3.611l-5.737-2.801
			c-1.693,1.766-3.188,3.729-4.443,5.859l4.244,4.764l-2.077,5.975l-6.287,1.113c-0.17,1.248-0.277,2.527-0.299,3.83
			c-0.011,1.191,0.042,2.361,0.15,3.518l6.241,1.352l1.835,6.057l-4.441,4.596c1.177,2.176,2.591,4.213,4.219,6.049l5.845-2.58
			l5.05,3.813l-0.886,6.334c2.193,1.049,4.521,1.873,6.953,2.406l3.21-5.535l6.329,0.119l3.003,5.646
			c2.455-0.453,4.813-1.18,7.041-2.156l-0.656-6.357l5.187-3.631l5.745,2.785c1.694-1.779,3.186-3.744,4.43-5.875l-4.271-4.746
			l2.056-5.994l6.292-1.121C98.936,341.371,99.036,340.127,99.052,338.867z M76.147,349.529c-6.141,4.906-15.111,3.936-20.041-2.234
			c-4.901-6.164-3.908-15.125,2.249-20.025c6.136-4.934,15.111-3.938,20.023,2.211C83.317,335.643,82.3,344.617,76.147,349.529z"/>
		<path fill="#FFFFFF" d="M83.545,325.373c-7.19-9-20.335-10.473-29.337-3.283c-8.992,7.199-10.461,20.324-3.251,29.336
			c7.19,8.996,20.326,10.461,29.32,3.27C89.278,347.506,90.739,334.367,83.545,325.373z M79,353.098
			c-8.112,6.484-19.961,5.166-26.446-2.949c-6.504-8.131-5.179-19.967,2.931-26.461c8.12-6.486,19.977-5.156,26.463,2.961
			C88.437,334.762,87.119,346.611,79,353.098z"/>
	</g>
</g>
<path fill="#222F3E" stroke="#FFFFFF" stroke-width="5" stroke-miterlimit="10" d="M180.944,293.305
	c0,32.561,38.35,36.34,38.35,36.34v37.721l-15.41-2.83c0.63-6.289-2.2-16.98-10.69-20.119c-8.48-3.141-19.17,7.859-19.17,7.859
	l-16.66-15.721c0,0,10.37-11.629,7.23-20.129c-3.14-8.5-20.43-10.041-20.43-10.041v-22.32c0,0,18.23-2.83,21.06-9.75
	c2.83-6.91-7.86-21.059-7.86-21.059l15.72-15.71c5.34,5.649,16.34,10.68,22.32,6.91c5.97-3.771,9.43-22.32,9.43-22.32h14.46v36.15
	C219.294,258.286,180.944,260.746,180.944,293.305z"/>
<path fill="#222F3E" stroke="#FFFFFF" stroke-width="5" stroke-miterlimit="10" d="M287.564,320.408
	c4.942,5.166,7.771,14.994,3.076,27.139c-6.904,17.92-31.631,14.393-31.631,14.393c-2.358,6.205-11.768,15.371-19.916,17.051
	c-10.694,2.205-19.804-11.637-19.804-11.637V222.125c0,0,4.093-10.053,18.861-10.053c14.768,0,21.426,18.54,21.426,18.54
	s12.203-1.887,23.217,5.979c10.996,7.864,4.357,32.933,4.357,32.933c7.582,4.92,14.767,14.749,16.389,24.913
	C306.369,312.033,287.564,320.408,287.564,320.408z"/>
<path fill="none" stroke="#FFFFFF" stroke-width="5" stroke-miterlimit="10" d="M272.72,335.287
	c-8.166-4.393-1.564-19.162,6.924-18.859c2.734,0.113,5.563,1.51,7.92,3.98"/>
<path fill="none" stroke="#FFFFFF" stroke-width="5" stroke-miterlimit="10" d="M244.128,349.434c0,0,10.996,3.471,14.768,7.863
	c0.907,1.059,0.85,2.697,0.113,4.643"/>
<path fill="none" stroke="#FFFFFF" stroke-width="5" stroke-miterlimit="10" d="M271.779,286.25c0,0-9.43-9.732,0-17.917
	c3.998-3.451,9.787-2.47,15.371,1.19"/>
<path fill="none" stroke="#FFFFFF" stroke-width="5.6581" stroke-linecap="round" stroke-miterlimit="10" d="M257.64,248.849
	c0,0-10.059-7.859-17.917,1.887c-7.859,9.744-4.4,15.089,0,16.975"/>
<path fill="none" stroke="#FFFFFF" stroke-width="5.6581" stroke-linecap="round" stroke-miterlimit="10" d="M259.007,301.656
	c0,0-7.34-7.859-18.656-1.57c-11.316,6.285,0,20.332,0,20.332"/>
<polygon fill="#222F3E" points="960,560 480,560 303.104,200 480,0 960,0 "/>
</svg>
